<svg width="181" height="66" viewBox="0 0 181 66" fill="none" xmlns="http://www.w3.org/2000/svg">
<rect x="53.2197" y="24.2217" width="32.0096" height="32.0096" fill="white"/>
<rect x="97.1963" y="6.52441" width="32.0096" height="32.0096" fill="white"/>
<rect x="141.429" y="6.52441" width="32.0096" height="32.0096" fill="white"/>
<rect x="7" y="7" width="32" height="30" fill="white"/>
<path d="M181 0.369629V43.6587H90.6445V65.4399H45.3223V43.6587H0V0.369629H181ZM59.1689 34.0757V46.5845C59.1689 48.4404 59.3359 51.1517 60.7666 53.2271C62.2102 55.322 64.6282 56.3822 67.9512 56.3823C71.2744 56.3823 73.6931 55.3197 75.1367 53.2271C76.5674 51.1542 76.7344 48.4428 76.7344 46.5845V34.0757H73.5283V46.5845C73.5283 48.9063 73.1905 50.4769 72.4648 51.5269C71.6289 52.737 70.1948 53.3013 67.9512 53.3013C65.7078 53.3012 64.2744 52.7394 63.4385 51.5269C62.7128 50.4744 62.374 48.9038 62.374 46.5845V34.0757H59.1689ZM159.127 10.8306C155.532 10.6482 150.981 12.1618 150.753 16.2681C150.556 19.8121 153.506 21.6212 156.542 22.4272L159.276 23.1294C162.007 23.891 163.986 24.8799 163.86 27.1548C163.742 29.2819 162.166 30.6823 158.725 30.5073C155.283 30.3323 153.519 28.5522 153.099 25.5698L150.012 25.5601C150.358 29.8438 153.268 32.7767 158.522 33.0454V33.0435C162.948 33.2701 166.863 31.3671 167.102 27.0542C167.34 22.7408 163.322 21.2911 159.95 20.4087L157.401 19.7163C155.337 19.1667 153.853 18.1437 153.958 16.2534C154.091 13.8601 157.143 13.276 158.863 13.3647C161.076 13.4782 163.54 14.5696 163.691 17.0835H166.74C166.079 12.9329 163.153 11.0351 159.127 10.8306ZM15.4678 11.2153V32.6587H18.6055V26.1616L21.8574 22.6812L29.2627 32.6587H33.0166L23.9805 19.9702L32.0625 11.2153H28.1553L18.6055 22.0112V11.2153H15.4678ZM105.471 11.2153V32.6587H108.609V23.6372H112.548C112.845 23.6372 113.128 23.6373 113.41 23.6323C117.513 23.6324 118.21 24.8798 118.21 26.4966V32.6587H121.287V25.5112C121.287 24.2493 120.826 22.8065 118.767 22.4146C120.695 21.542 121.841 20.1942 121.841 17.397C121.841 12.2505 117.963 11.2153 112.548 11.2153H105.471ZM112.684 13.8247C116.001 13.8247 118.543 14.21 118.543 17.5278C118.543 20.8457 116.001 21.1714 112.684 21.1714H108.468V13.8247H112.684Z" fill="black"/>
</svg>
