<?xml version="1.0" encoding="UTF-8"?>
<svg id="Layer_1" xmlns="http://www.w3.org/2000/svg" xmlns:xlink="http://www.w3.org/1999/xlink" version="1.1" viewBox="0 0 160.6 76">
  <!-- Generator: Adobe Illustrator 29.2.1, SVG Export Plug-In . SVG Version: 2.1.0 Build 116)  -->
  <defs>
    <style>
      .st0 {
        fill: #231f20;
      }

      .st1 {
        fill: #333;
        fill-rule: evenodd;
      }
    </style>
  </defs>
  <g id="MacBook-Pro-14_x22_-Copy-7">
    <g id="Group-15">
      <g id="Group-6-Copy">
        <path id="Fill-1" class="st1" d="M26.9,27.4l.7-1.3c.2-.3.5-.4.9-.3,0,0,.1,0,.1.1v-.2c.4-.6,1.1-.8,1.6-.6.5.3.7,1,.4,1.5l-1.3,2.5c-.3.6-1,.8-1.5.6-.5-.2-.7-.8-.5-1.4h-.1c-.3-.2-.5-.6-.3-.9M30.6,22.5s.7-.6,1.9-1.1c1.2-.5,2.8-.8,4.7-.3l.9.3c3.1,1.3,4.5,4.2,4.6,4.2,0,.3,0,.6-.3.7s-.6-.1-.8-.3h0c0-.2,0-.3-.2-.4-.2-.3-.4-.6-.7-1-.7-.8-1.6-1.7-2.9-2.2-.2-.1-.5-.2-.8-.3-2.6-.7-5,.8-5.5,1.1h-.1c-.2.2-.4.3-.6.2-.1,0-.1-.1-.2-.1-.1-.3-.1-.6.1-.8M43.4,28.8v1.5c0,.3-.1.7-.5.7h0v.2c0,.7-.4,1.2-1,1.3s-1.1-.4-1.2-1.1l-.3-2.8c0-.7.4-1.2,1-1.3.5-.1,1,.4,1.2.9h0c.4,0,.7.2.8.6M29.5,45.4c-.1-.9-.3-1.8-.4-2.6h-.3c0,0-2.8.4-3.7.9-.9.5-1.7.9-2.2.3-.6-.6-.7-1.9-.8-1.9-.2,0-.4,0-.5.6,0,.5-.5,1.4-.8,1.6-.3.2-1.1.4-1.2-.6s1-2.4,1-2.4c0,0,.2-.2.1-.4-.2-.2-.6,0-1,.2-.4,0-2.3.9-2.5,0-.2-1.1,1.1-1.2,1.4-1.2s1.4.2,1.6-.2c.2-.3.1-.9-.7-1.4-.8-.5-1.5-1.1-1.1-1.8.5-.7,1.2-.4,1.7,0,.4.4.8,1.2,1,1.3s.6-.3.6-.7-.3-1.4.1-2.1c.4-.7,1.4-.3,1.5.7s-.1,1.1-.2,1.4c-.1.4-.1,1,.6.6.6-.3.7-.5,1-.9.2-.3,1-.8,1.2-.5.3.3,1,.9-.4,1.6-1.3.7-1.5,1.1-1.4,1.3s.2,1.3.5,1.2c.3,0,2.8-1,4-1.4-.6-5.7-.2-7.3-.2-7.3h0c.7-.2,1.4-.5,1.7-1.2l1.7-3.2c0-.1.1-.1.1-.2.3-.7.2-1.5-.3-2.1.7-.7,2.1-1.9,4.5-1.5,2.9.6,3.7,1.9,4.2,3-.8.4-1.3,1.2-1.2,2.2l.5,3.6v.2c.2.7.6,1.2,1.2,1.4-.2.8-.5,1.9-.7,3.1,0,.3,0,.5,0,.8h4.5c.4,0,0-1.1,0-1.4s-.3-.5-1.8-.7-1.1-1-.9-1.4c0-.4,1-.2,1.3,0,.3.2.5.4,1.2.5s.5-.5.3-.8-.4-.3-.7-1.3.6-1.7,1.2-1.2c.6.5.7,1.5.8,1.9s.6.7.8.5.2-1.1.5-1.6.9-1.1,1.6-.6c.7.5.2,1.3-.4,2.1-.6.8-.5,1.4-.2,1.6.3.2,1.3-.3,1.6-.4.3,0,1.6-.4,1.8.7.2,1.1-1.9,1-2.3,1s-.9,0-1,.2.2.4.2.4c0,0,1.5.9,1.8,1.9s-.5,1.1-.9,1-1.1-.8-1.3-1.2-.5-.5-.6-.4.2,1.3,0,2.1-1.2.7-2.2.5-3.7.5-3.7.5h-.2c.2.2.4.4.7.6,1.8,1.1,5.7,0,9,0,1.9,0,4.5.7,7.4,1.9.8-1,2-2.6,2.5-3.3,0-.2,0-.5,0-.7-.3-.3-.9-.6-1.1-.7-.2-.2-.7,0-2,1.2s-1.8.3-2,0c-.2-.4.6-1.1,1-1.2.5,0,.7-.2,1.3-.8s0-.8-.5-.9c-.5,0-.6.2-1.7-.3-1.1-.4-1.2-1.8-.2-2,.9-.2,1.9.4,2.4.6.5.2,1.1,0,1-.4,0-.3-.9-1-1.2-1.6s-.5-1.6.5-1.9c1-.3,1.4.7,1.7,1.9,0,.5.4.9.6,1.1-1.4-12-11.5-21.1-23.7-21.1s-24.1,10.8-24.1,24,10.8,24,24.1,24,1.6,0,2.4,0v-1.9s.6-1,.8,0c0,.3.2.9.4,1.7,3.5-.5,6.7-1.8,9.5-3.7-6.1.2-19.2-1.7-20.8-12.6"/>
        <g id="Group-5">
          <path id="Fill-3" class="st1" d="M75.1,31.9h0v-.4c-1.8-10.2-7.5-18.8-15.3-24.4-3.9-2.8-8.3-4.8-12.9-6,0,0,0-.1-.2-.1h-.4c-10.1-2.3-20.3-.4-28.5,4.5C9.6,10.5,3.2,18.7.7,28.7c0,.1,0,.2-.1.2-.3,1.3.3,2.5,1.4,2.7l7.1,1.7c1.1.3,2.2-.5,2.5-1.8h0c1.8-7.2,6.2-13,12.1-16.5,2.9-1.7,6-2.9,9.4-3.5h0c7.3-1.2,14.4.7,20,4.7,5.6,4,9.6,10.1,10.8,17.4h0c.3,1.2,1.3,1.9,2.3,1.8l7.2-1.2c1,0,1.7-1.1,1.6-2.3h0ZM73.1,44.3l-7.1-1.8c-1.1-.3-2.2.5-2.5,1.8h0c-1.8,7.2-6.2,13-12.1,16.5-2.9,1.7-6,2.9-9.4,3.5h-.3c.3,1,.6,2,.8,2.7.8,1.8,2.2,4.8,5.9,6.2.6.2,1.3.4,1.9.5,2.4-.9,4.8-2,7-3.3,1.2-.7,2.3-1.5,3.4-2.4q0,0,0-.2l.7-.3c6.3-5,11-12,13.1-20.4,0,0,0-.2,0-.2.3-1.2-.3-2.4-1.4-2.6h0ZM42.6,71.3c-1.6-2.7-2.2-4.9-2.5-6.7-6.6.6-13-1.2-18.1-4.9-5.6-4-9.6-10.1-10.8-17.4h0c-.3-1.2-1.3-1.9-2.3-1.8l-7.2,1.2C.7,41.9,0,42.9,0,44.1H0v.4c1.8,10.2,7.5,18.8,15.3,24.4,3.9,2.8,8.3,4.8,13,6,.1,0,.1,0,.2,0h.4c5.9,1.4,11.9,1.3,17.5,0-1.8-.9-3.1-2.2-3.9-3.6h0Z"/>
        </g>
      </g>
      <g>
        <rect class="st0" x="86.5" y="7.2" width="2" height="17.4"/>
        <path class="st0" d="M93.8,22.1c1,1.5,2.5,2.7,4.9,2.7s6.1-2.5,6.1-6.7h0c0-4.3-3-6.7-6.1-6.7s-3.8,1.3-4.9,2.9v-7.9h-1.9v18.1h1.9v-2.4h0ZM93.8,18.1c0-2.9,2.3-4.9,4.6-4.9s4.5,1.9,4.5,5h0c0,3.2-2,5-4.5,5s-4.6-2-4.6-5h0Z"/>
        <rect class="st0" x="107.2" y="6.9" width="2.2" height="2.1"/>
        <rect class="st0" x="107.3" y="11.8" width="1.9" height="12.8"/>
        <polygon class="st0" points="122.8 23 114.3 23 122.8 13 122.8 11.8 112 11.8 112 13.4 120.2 13.4 111.7 23.4 111.7 24.6 122.8 24.6 122.8 23"/>
        <path class="st0" d="M128.8,24.9c2.3,0,3.7-1.1,4.6-2.2v1.9h1.8v-7.8c0-1.6-.4-2.9-1.3-3.7-.9-.9-2.3-1.4-4.2-1.4s-3.3.4-4.6,1.1l.6,1.5c1.2-.6,2.4-.9,3.9-.9,2.4,0,3.8,1.2,3.8,3.5v.4c-1.2-.3-2.3-.6-3.9-.6-3.3,0-5.5,1.5-5.5,4.2h0c0,2.7,2.4,4.1,4.8,4.1h0ZM125.9,20.7c0-1.6,1.3-2.7,3.7-2.7s2.8.3,3.8.6v1.2c0,2-1.9,3.5-4.3,3.5s-3.2-.9-3.2-2.5h0c0,0,0,0,0,0Z"/>
        <path class="st0" d="M94.3,47.2c3.2,0,5.6-1.2,7.4-2.8v-7.5h-7.5v3.3h3.8v2.5c-1,.7-2.2,1.1-3.6,1.1-3.1,0-5.3-2.3-5.3-5.5h0c0-3,2.2-5.5,5-5.5s3.2.7,4.5,1.8l2.4-2.9c-1.8-1.5-3.7-2.4-6.8-2.4-5.3,0-9.1,4-9.1,9h0c0,5.2,3.7,9,9.1,9h0Z"/>
        <rect class="st0" x="103.9" y="28.8" width="3.8" height="18.1"/>
        <path class="st0" d="M109.3,40.3c0,3.8,3.1,6.9,7.2,6.9s7.2-3.1,7.2-6.9h0c0-3.9-3.1-6.9-7.2-6.9s-7.2,3.1-7.2,6.9h0ZM113,40.2c0-2,1.3-3.6,3.4-3.6s3.5,1.7,3.5,3.7h0c0,2-1.3,3.7-3.4,3.7s-3.5-1.7-3.5-3.7h0Z"/>
        <path class="st0" d="M139.1,40.3h0c0-4.5-2.9-6.9-6-6.9s-3.2.9-4.2,2.2v-6.7h-3.8v18.1h3.8v-1.7c.9,1.1,2.1,2,4.2,2,3.2,0,6-2.4,6-6.9h0ZM128.9,40.3h0c0-2.3,1.5-3.7,3.2-3.7s3.3,1.5,3.3,3.7h0c0,2.3-1.5,3.7-3.3,3.7s-3.2-1.5-3.2-3.7Z"/>
        <path class="st0" d="M146.2,33.5c-2.3,0-3.7.4-5.1,1.1l.9,2.9c1.2-.5,2.2-.7,3.7-.7s2.9.8,2.9,2.4v.2c-1-.3-1.9-.6-3.3-.6-3.2,0-5.4,1.4-5.4,4.2h0c0,2.7,2,4.1,4.6,4.1s3.1-.7,4-1.7v1.4h3.7v-7.7c0-1.8-.4-3.3-1.4-4.2-1-1-2.4-1.5-4.5-1.5h0ZM148.5,42.2c0,1.4-1.2,2.3-2.9,2.3s-2-.6-2-1.6h0c0-1.2,1-1.9,2.6-1.9s1.7.2,2.4.5v.7h0Z"/>
        <rect class="st0" x="154.3" y="28.8" width="3.8" height="18.1"/>
        <path class="st0" d="M100,57.1h0c0-1.5-.5-2.6-1.3-3.5s-2.8-1.7-4.9-1.7h-7.5v17.4h2v-6.8h5l5,6.8h2.4l-5.3-7.1c2.7-.5,4.7-2.2,4.7-5.1ZM88.3,60.7v-7h5.4c2.8,0,4.4,1.3,4.4,3.4h0c0,2.3-1.9,3.6-4.5,3.6h-5.3,0Z"/>
        <path class="st0" d="M107.5,55.2c-1.9,0-3.3.4-4.6,1.1l.6,1.5c1.2-.6,2.4-.9,3.9-.9,2.4,0,3.8,1.2,3.8,3.5v.4c-1.2-.3-2.3-.6-3.9-.6-3.3,0-5.5,1.5-5.5,4.2h0c0,2.7,2.4,4.1,4.8,4.1s3.7-1.1,4.6-2.2v1.9h1.8v-7.8c0-1.6-.4-2.9-1.3-3.7-.9-.9-2.3-1.4-4.2-1.4h0ZM111.1,63.5c0,2-1.9,3.5-4.3,3.5s-3.2-.9-3.2-2.5h0c0-1.7,1.3-2.7,3.7-2.7s2.8.3,3.8.6v1.2h0Z"/>
        <path class="st0" d="M126.1,58.9c-1-1.5-2.5-2.7-4.9-2.7s-6.1,2.5-6.1,6.7h0c0,4.3,3,6.7,6.1,6.7s3.8-1.3,4.9-2.9v2.6h1.9v-18.1h-1.9v7.7ZM126.1,62.8c0,2.9-2.3,5-4.6,5s-4.5-1.9-4.5-5h0c0-3.2,2-5,4.5-5s4.6,2,4.6,4.9h0Z"/>
        <rect class="st0" x="131" y="51.5" width="2.2" height="2.1"/>
        <rect class="st0" x="131.1" y="56.4" width="1.9" height="12.8"/>
        <path class="st0" d="M142.2,56.1c-3.9,0-6.7,3-6.7,6.7h0c0,3.7,2.8,6.7,6.6,6.7s6.7-3,6.7-6.7h0c0-3.7-2.8-6.7-6.7-6.7h0ZM146.9,62.9c0,2.7-1.9,4.9-4.7,4.9s-4.7-2.2-4.7-5h0c0-2.8,1.9-5,4.7-5s4.8,2.3,4.8,5h0Z"/>
      </g>
    </g>
  </g>
</svg>